<?xml version="1.0" encoding="utf-8"?>
<!-- Generator: Adobe Illustrator 17.1.0, SVG Export Plug-In . SVG Version: 6.00 Build 0)  -->
<!DOCTYPE svg PUBLIC "-//W3C//DTD SVG 1.1//EN" "http://www.w3.org/Graphics/SVG/1.1/DTD/svg11.dtd">
<svg version="1.1" id="Layer_1" xmlns="http://www.w3.org/2000/svg" xmlns:xlink="http://www.w3.org/1999/xlink" x="0px" y="0px"
	 viewBox="-72 28 240 40" enable-background="new -72 28 240 40" xml:space="preserve">
<g>
	<path fill="#FFFFFF" d="M34.6,66V41.4l4.9-0.6v1.4c1.3-1,2.6-1.4,3.9-1.4c2.7,0,4.9,0.9,6.5,2.7c1.6,1.8,2.4,3.8,2.4,6.2
		s-0.8,4.4-2.4,6.2c-1.6,1.8-3.7,2.7-6.5,2.7c-1.8-0.1-3-0.6-3.9-1.4v8.8L34.6,66z M39.6,48.1V51c0.2,2,1.4,3.1,3.7,3.5
		c2.9-0.2,4.4-1.7,4.8-4.4c-0.1-3.3-1.7-5-4.8-5.1C41,45.3,39.7,46.3,39.6,48.1z"/>
	<path fill="#FFFFFF" d="M58,42.8c1.2-1.3,2.8-1.9,4.6-1.9c0.6,0,1.1,0,1.6,0.1l-0.8,4.9C62.9,45.3,62,45.1,61,45
		c-1.2,0.1-2.2,1-3,2.6v10.8h-4.9V41.3l4.9-0.6V42.8z"/>
	<path fill="#FFFFFF" d="M64.2,49.7c0-2.6,0.9-4.7,2.5-6.4c1.6-1.6,3.8-2.5,6.4-2.5c2.6,0,4.7,0.9,6.2,2.5c1.5,1.6,2.3,3.8,2.3,6.4
		v1.8H69.3c0.1,1,0.6,1.7,1.2,2.2c0.7,0.6,1.5,0.8,2.5,0.8c1.6,0,3.1-0.5,4.4-1.4l2.9,2.9c-1.3,1.8-3.7,2.7-7.2,2.7
		c-2.6,0-4.8-0.9-6.4-2.5C65,54.4,64.2,52.3,64.2,49.7z M75.5,45.7C74.8,45.2,74,45,73,45c-1,0-1.8,0.3-2.5,0.8
		c-0.7,0.6-1,1.2-1,2.2h7C76.6,47,76.2,46.3,75.5,45.7z"/>
	<path fill="#FFFFFF" d="M93,41.4c1,0.4,1.8,1,2.6,1.8l-2.8,3.1c-0.8-1-1.8-1.4-3-1.4c-1.2,0-2,0.2-2.4,0.7c-0.4,0.5-0.4,0.9,0,1.2
		c0.4,0.4,1.2,0.7,2.4,0.9c1.7,0.2,3.2,0.7,4.3,1.5c1.1,0.9,1.7,2.3,1.7,4.4c0,1.7-0.7,2.9-2,3.9c-1.3,1-2.9,1.3-4.6,1.3
		c-1.7,0-3-0.2-4.2-0.8c-1.1-0.5-2.1-1.1-2.9-1.9l2.8-3c0.8,1,2,1.5,3.7,1.6c1.3,0,2.2-0.2,2.7-0.7c0.4-0.5,0.5-0.9,0.2-1.3
		c-0.3-0.5-1.2-0.8-2.8-0.9c-1.4-0.2-2.8-0.6-3.9-1.3c-1.2-0.8-1.8-2.1-1.8-4.1c0-1.8,0.7-3.2,2-4.2c1.3-1,2.8-1.4,4.2-1.4
		C90.8,40.8,92.1,41,93,41.4z"/>
	<path fill="#FFFFFF" d="M96.2,49.7c0-2.6,0.9-4.7,2.5-6.4c1.6-1.6,3.8-2.5,6.4-2.5c2.6,0,4.7,0.9,6.2,2.5c1.5,1.6,2.3,3.8,2.3,6.4
		v1.8h-12.2c0.1,1,0.6,1.7,1.2,2.2c0.7,0.6,1.5,0.8,2.5,0.8c1.6,0,3.1-0.5,4.4-1.4l2.9,2.9c-1.3,1.8-3.7,2.7-7.2,2.7
		c-2.6,0-4.8-0.9-6.4-2.5C96.9,54.4,96.2,52.3,96.2,49.7z M107.5,45.7c-0.7-0.6-1.5-0.8-2.5-0.8c-1,0-1.8,0.3-2.5,0.8
		c-0.7,0.6-1,1.2-1,2.2h7C108.5,47,108.1,46.3,107.5,45.7z"/>
	<path fill="#FFFFFF" d="M119.9,47.3v11.2H115V41.4l4.9-0.6v1.6c1.1-1,2.6-1.6,4.3-1.6c2.3,0,3.9,0.7,5.1,2c1.1,1.3,1.8,2.9,1.8,4.7
		v10.9h-4.9v-9.6c0-1.1-0.3-2.1-0.9-2.8c-0.6-0.7-1.5-1-2.7-1C121.6,45.2,120.6,45.9,119.9,47.3z"/>
	<path fill="#FFFFFF" d="M134.6,56.3c-1.8-1.4-2.7-3.4-2.7-5.7v-1.8c0-2.4,0.9-4.3,2.7-5.7c1.8-1.4,3.8-2.2,6.2-2.2c2.9,0,5.1,1,7,3
		l-3.5,2.7c-1-1-2.3-1.6-3.5-1.6c-1.1,0-2.2,0.5-3,1.4s-1.3,2.1-1.3,3.3c0,1.3,0.4,2.4,1.2,3.3s1.9,1.4,3.1,1.4
		c1.3,0,2.5-0.6,3.5-1.6l3.5,2.7c-1.9,2-4.3,3-7,3C138.4,58.6,136.4,57.8,134.6,56.3z"/>
	<path fill="#FFFFFF" d="M148.1,49.7c0-2.6,0.9-4.7,2.5-6.4c1.6-1.6,3.8-2.5,6.4-2.5s4.7,0.9,6.2,2.5c1.5,1.6,2.3,3.8,2.3,6.4v1.8
		h-12.2c0.1,1,0.6,1.7,1.2,2.2c0.7,0.6,1.5,0.8,2.5,0.8c1.6,0,3.1-0.5,4.4-1.4l2.9,2.9c-1.3,1.8-3.7,2.7-7.2,2.7
		c-2.6,0-4.7-0.9-6.4-2.5C148.9,54.4,148.1,52.3,148.1,49.7z M159.4,45.7c-0.7-0.6-1.5-0.8-2.5-0.8s-1.8,0.3-2.5,0.8
		c-0.7,0.6-1,1.2-1,2.2h7C160.5,47,160.1,46.3,159.4,45.7z"/>
</g>
<g>
	<path fill="#F7922E" d="M-17.5,43c2.3-1.4,4.9-2.1,7.8-2.1c2.1,0,3.8,0.6,5,1.8c1.2,1.1,1.8,2.9,1.8,5.3v10.6h-4.9v-1.4
		c-1.4,1-2.8,1.4-3.9,1.4c-2.4,0-4.1-0.5-5.3-1.5c-1.1-1-1.8-2.4-1.8-4.2c0-1.6,0.6-3.1,1.7-4.4c1.1-1.3,2.9-1.9,5.4-1.9
		c1.1,0,2.5,0.4,3.9,1v-0.6c0-1.3-1-2-2.9-2.1c-2.1,0-3.8,0.4-4.9,1L-17.5,43z M-7.8,53.2v-2c-0.5-1-1.6-1.3-3.3-1.3
		c-2.1,0.2-3.2,1-3.3,2.5c0.1,1.4,1.2,2.2,3.3,2.3C-9.3,54.7-8.3,54.2-7.8,53.2z"/>
	<path fill="#F7922E" d="M4.2,47.3v11.2h-4.9V41.4l4.9-0.6v1.6c1.1-1,2.6-1.6,4.3-1.6c2.3,0,3.9,0.7,5.1,2c1.1,1.3,1.8,2.9,1.8,4.7
		v10.9h-4.9v-9.6c0-1.1-0.3-2.1-0.9-2.8c-0.6-0.7-1.5-1-2.7-1C5.8,45.2,4.9,45.9,4.2,47.3z"/>
	<path fill="#F7922E" d="M28,52.4V40.9H33v16.3c0,2.5-0.8,4.6-2.3,6.2c-1.5,1.6-3.3,2.6-5.5,2.7l-1,0.1c-2.5-0.1-4.7-1-6.8-2.9
		l2.3-2.7c1.4,1,2.8,1.6,4,1.8c1.5,0,2.7-0.4,3.3-1.1s1-1.8,1-3.2v-1c-1.2,1-2.7,1.6-4.3,1.6c-2.3,0-3.9-0.7-5.1-2
		c-1.1-1.3-1.8-2.9-1.8-4.7v-11h4.9v9.7c0,1.1,0.3,2.1,0.9,2.8c0.6,0.7,1.5,1,2.7,1C26.3,54.3,27.3,53.6,28,52.4z"/>
</g>
<g>
	<path fill="#F7922E" d="M-34.9,39.2c-0.3-2.5-1.4-4.8-3-6.7c-1-1.2-2.5-2.2-3.9-2.9s-3.1-1-4.9-1c-1.6,0-3.2,0.4-4.8,1
		c-1.4,0.8-2.8,1.7-3.9,2.9c-1.7,1.8-2.9,4.2-3.1,6.7c-5.9,0.3-10.7,5.1-10.7,11c0,6.1,4.9,11,11,11h12.9l9.7,6.3v-6.3h0.4
		c6.1,0,11-4.9,11-11C-24.1,44.2-28.9,39.3-34.9,39.2z"/>
	<g>
		<path fill="#FFFFFF" d="M-35.1,58.5h-0.6h-2.6V61v1.4l-2.2-1.4l-3.9-2.6H-49h-9.1c-4.6,0-8.3-3.7-8.3-8.3c0-4.5,3.6-8.2,8.1-8.3
			c0.1,0,0.1,0,0.2,0h1.8c0-0.3,0-0.5,0-0.8c0-0.6,0.1-1.2,0.3-1.8c0.2-0.7,0.4-1.3,0.7-1.9c0.6-1.1,1.3-2.2,2.2-2.9
			c1.8-1.6,4.2-2.6,6.7-2.6c2.4,0,4.9,0.9,6.8,2.5c1,0.9,1.7,1.8,2.3,2.9c0.3,0.7,0.6,1.2,0.7,2c0.1,0.6,0.2,1.1,0.3,1.8
			c0,0.3,0,0.5,0,0.8h1.5l0,0c4.6,0,8.3,3.7,8.3,8.3C-26.8,54.8-30.6,58.5-35.1,58.5z"/>
	</g>
	<path d="M-33.2,50.4c-0.3,0-0.6-0.1-0.8-0.4c-3.3-3.5-7.9-5.4-12.7-5.4c-4.9,0-9.3,1.9-12.7,5.4c-0.4,0.5-1.1,0.5-1.5,0
		c-0.5-0.4-0.5-1.1,0-1.5c3.7-3.9,8.8-6.1,14.2-6.1s10.5,2.2,14.3,6.2c0.4,0.5,0.4,1.1,0,1.5C-32.6,50.3-32.9,50.4-33.2,50.4z"/>
	<path d="M-56.8,53.4c-0.3,0-0.5-0.1-0.7-0.3c-0.5-0.4-0.5-1-0.1-1.5c2.8-3.2,6.8-5,11-5s8.3,1.8,11,5c0.4,0.5,0.4,1.1-0.1,1.5
		s-1.1,0.4-1.5-0.1c-2.4-2.8-5.7-4.3-9.3-4.3c-3.6,0-7,1.6-9.3,4.3C-56.2,53.3-56.5,53.4-56.8,53.4z"/>
	<path d="M-40.3,55.5c-0.3,0-0.6-0.1-0.8-0.3c-1.5-1.5-3.5-2.4-5.6-2.4c-2.1,0-4.2,0.9-5.6,2.4c-0.4,0.4-1.1,0.4-1.5,0
		c-0.4-0.4-0.4-1.1,0-1.5c1.9-1.9,4.5-2.9,7.1-2.9c2.8,0,5.2,1,7.2,2.9c0.4,0.4,0.4,1.1,0,1.5C-39.7,55.4-40,55.5-40.3,55.5z"/>
</g>
</svg>
