<?xml version="1.0" encoding="utf-8"?>
<!-- Generator: Adobe Illustrator 17.1.0, SVG Export Plug-In . SVG Version: 6.00 Build 0)  -->
<!DOCTYPE svg PUBLIC "-//W3C//DTD SVG 1.1//EN" "http://www.w3.org/Graphics/SVG/1.1/DTD/svg11.dtd">
<svg version="1.1" id="Layer_1" xmlns="http://www.w3.org/2000/svg" xmlns:xlink="http://www.w3.org/1999/xlink" x="0px" y="0px"
	 viewBox="0 80.5 326.7 57.4" enable-background="new 0 80.5 326.7 57.4" xml:space="preserve">
<g opacity="0.6">
	<path fill="#FFFFFF" d="M144.6,134.5v-33.7l6.9-0.7v2.1c1.7-1.4,3.4-2.1,5.5-2.1c3.8,0,6.9,1.4,8.9,3.8c2.1,2.4,3.4,5.2,3.4,8.6
		s-1,6.2-3.4,8.6c-2.1,2.4-5.2,3.8-8.9,3.8c-2.4,0-4.1-0.7-5.5-2.1v12L144.6,134.5L144.6,134.5z M151.5,109.4v4.1
		c0.3,2.7,2.1,4.1,5.2,4.8c4.1-0.3,6.2-2.4,6.5-6.2c0-4.5-2.4-6.9-6.5-6.9C153.5,105.9,151.8,107,151.5,109.4z"/>
	<path fill="#FFFFFF" d="M176.9,102.5c1.7-1.7,3.8-2.7,6.2-2.7c0.7,0,1.4,0,2.1,0l-1,6.9c-0.7-0.7-2.1-1-3.4-1.4
		c-1.7,0-3.1,1.4-4.1,3.4v14.8h-6.9v-23.4l6.9-0.7v3.1H176.9z"/>
	<path fill="#FFFFFF" d="M185.5,112.1c0-3.4,1.4-6.5,3.4-8.9c2.1-2.1,5.2-3.4,8.9-3.4c3.8,0,6.5,1.4,8.6,3.4
		c2.1,2.1,3.1,5.2,3.1,8.9v2.4h-16.8c0,1.4,0.7,2.4,1.7,3.1c1,0.7,2.1,1,3.4,1c2.1,0,4.1-0.7,6.2-2.1l4.1,4.1
		c-1.7,2.4-5.2,3.8-10,3.8c-3.4,0-6.5-1.4-8.9-3.4C186.5,118.3,185.5,115.6,185.5,112.1z M201,106.6c-1-0.7-2.1-1-3.4-1
		s-2.4,0.3-3.4,1c-1,0.7-1.4,1.7-1.4,3.1h9.6C202.3,108,202,107,201,106.6z"/>
	<path fill="#FFFFFF" d="M225,100.8c1.4,0.7,2.4,1.4,3.4,2.4l-3.8,4.1c-1-1.4-2.4-2.1-4.1-2.1s-2.7,0.3-3.4,1
		c-0.7,0.7-0.7,1.4,0,1.7c0.7,0.7,1.7,1,3.4,1.4c2.4,0.3,4.5,1,5.8,2.1c1.4,1.4,2.4,3.1,2.4,6.2c0,2.4-1,4.1-2.7,5.5
		c-1.7,1.4-4.1,1.7-6.2,1.7c-2.4,0-4.1-0.3-5.8-1c-1.4-0.7-2.7-1.4-4.1-2.7l3.8-4.1c1,1.4,2.7,2.1,5.2,2.1c1.7,0,3.1-0.3,3.8-1
		c0.7-0.7,0.7-1.4,0.3-1.7c-0.3-0.7-1.7-1-3.8-1.4s-3.8-0.7-5.5-1.7c-1.7-1-2.4-2.7-2.4-5.5c0-2.4,1-4.5,2.7-5.8
		c1.7-1.4,3.8-2.1,5.8-2.1C221.9,99.8,223.6,100.1,225,100.8z"/>
	<path fill="#FFFFFF" d="M229.5,112.1c0-3.4,1.4-6.5,3.4-8.9c2.1-2.1,5.2-3.4,8.9-3.4s6.5,1.4,8.6,3.4c2.1,2.1,3.1,5.2,3.1,8.9v2.4
		h-16.8c0,1.4,0.7,2.4,1.7,3.1c1,0.7,2.1,1,3.4,1c2.1,0,4.1-0.7,6.2-2.1l4.1,4.1c-1.7,2.4-5.2,3.8-10,3.8c-3.4,0-6.5-1.4-8.9-3.4
		C230.2,118.3,229.5,115.6,229.5,112.1z M244.9,106.6c-1-0.7-2.1-1-3.4-1c-1.4,0-2.4,0.3-3.4,1c-1,0.7-1.4,1.7-1.4,3.1h9.6
		C246.3,108,245.6,107,244.9,106.6z"/>
	<path fill="#FFFFFF" d="M261.8,108.7v15.5h-6.9v-23.4l6.9-0.7v2.1c1.4-1.4,3.4-2.1,5.8-2.1c3.1,0,5.5,1,6.9,2.7
		c1.4,1.7,2.4,4.1,2.4,6.5v15.1H270v-13.1c0-1.4-0.3-2.7-1.4-3.8c-1-1-1.4-2.1-3.1-2.1C264.2,105.9,262.8,107,261.8,108.7z"/>
	<path fill="#FFFFFF" d="M282,120.7c-2.4-2.1-3.8-4.8-3.8-7.9v-2.4c0-3.4,1.4-5.8,3.8-7.9c2.4-2.1,5.2-3.1,8.6-3.1
		c4.1,0,6.9,1.4,9.6,4.1l-4.8,3.8c-1.4-1.4-3.1-2.1-4.8-2.1c-1.4,0-3.1,0.7-4.1,2.1c-1,1.4-1.7,2.7-1.7,4.5c0,1.7,0.7,3.4,1.7,4.5
		c1,1.4,2.7,2.1,4.1,2.1c1.7,0,3.4-0.7,4.8-2.1l4.8,3.8c-2.7,2.4-5.8,3.8-9.6,3.8C287.2,124.2,284.4,123.1,282,120.7z"/>
	<path fill="#FFFFFF" d="M300.6,112.1c0-3.4,1.4-6.5,3.4-8.9c2.1-2.1,5.2-3.4,8.9-3.4c3.8,0,6.5,1.4,8.6,3.4
		c2.1,2.1,3.1,5.2,3.1,8.9v2.4h-16.8c0,1.4,0.7,2.4,1.7,3.1c1,0.7,2.1,1,3.4,1c2.1,0,4.1-0.7,6.2-2.1l4.1,4.1
		c-1.7,2.4-5.2,3.8-10,3.8c-3.4,0-6.5-1.4-8.9-3.4C301.6,118.3,300.6,115.6,300.6,112.1z M316.1,106.6c-1-0.7-2.1-1-3.4-1
		c-1.4,0-2.4,0.3-3.4,1c-1,0.7-1.4,1.4-1.4,3.1h9.6C317.8,108,317.1,107,316.1,106.6z"/>
</g>
<g>
	<path fill="#FFFFFF" d="M73.1,102.5c3.1-2.1,6.9-2.7,10.7-2.7c2.7,0,5.2,0.7,6.9,2.4c1.7,1.4,2.4,4.1,2.4,7.2v14.4h-6.9v-2.1
		c-2.1,1.4-3.8,2.1-5.5,2.1c-3.4,0-5.5-0.7-7.2-2.1c-1.4-1.4-2.4-3.4-2.4-5.8c0-2.1,0.7-4.1,2.4-6.2c1.4-1.7,4.1-2.7,7.6-2.7
		c1.4,0,3.4,0.7,5.5,1.4v-0.7c0-1.7-1.4-2.7-4.1-2.7c-2.7,0-5.2,0.7-6.9,1.4L73.1,102.5z M86.5,116.9v-2.7c-0.7-1.4-2.1-1.7-4.5-1.7
		c-2.7,0.3-4.5,1.4-4.5,3.4c0,2.1,1.7,3.1,4.5,3.1C84.5,119,85.8,118,86.5,116.9z"/>
	<path fill="#FFFFFF" d="M103,108.7v15.5h-6.9v-23.4l6.9-0.7v2.1c1.4-1.4,3.4-2.1,5.8-2.1c3.1,0,5.5,1,6.9,2.7
		c1.4,1.7,2.4,4.1,2.4,6.5v15.1h-6.9v-13.1c0-1.4-0.3-2.7-1.4-3.8c-0.7-1-2.1-1.4-3.8-1.4C105.1,105.9,103.7,107,103,108.7z"/>
	<path fill="#FFFFFF" d="M135.7,115.6V99.8h6.9v22.3c0,3.4-1,6.2-3.1,8.6c-2.1,2.4-4.5,3.4-7.6,3.8h-1.4c-3.4,0-6.5-1.4-9.3-4.1
		l3.1-3.8c2.1,1.4,3.8,2.1,5.5,2.4c2.1,0,3.8-0.7,4.5-1.4c0.7-1,1.4-2.4,1.4-4.5v-1.4c-1.7,1.4-3.8,2.1-5.8,2.1
		c-3.1,0-5.5-1-6.9-2.7c-1.4-1.7-2.4-4.1-2.4-6.5V99.4h6.9v13.4c0,1.4,0.3,2.7,1.4,3.8c0.7,1,2.1,1.4,3.8,1.4
		C133.3,118,134.6,117.3,135.7,115.6z"/>
</g>
<g>
	<path opacity="0.6" fill="#FFFFFF" enable-background="new    " d="M49.1,97.4c-0.3-3.4-2.1-6.5-4.1-9.3c-1.4-1.7-3.4-3.1-5.5-4.1
		c-2.1-1-4.1-1.4-6.9-1.4c-2.1,0-4.5,0.7-6.5,1.4c-1.7,1.4-3.4,2.4-5.2,4.1c-2.4,2.4-4.1,5.8-4.1,9.3C8.5,97.7,2,104.2,2,112.5
		s6.9,15.1,15.1,15.1H35l13.4,8.6v-8.6h0.7c8.2,0,15.1-6.9,15.1-15.1C63.8,104.2,57.3,97.4,49.1,97.4z"/>
	<g>
		<path fill="#FFFFFF" d="M48.7,124.2H48h-3.4v3.4v2.1l-3.1-2.1l-5.5-3.4h-6.2H17.1c-6.2,0-11.3-5.2-11.3-11.3
			c0-6.2,4.8-11.3,11-11.3c0,0,0,0,0.3,0h2.4c0-0.3,0-0.7,0-1c0-0.7,0-1.7,0.3-2.4c0.3-1,0.7-1.7,1-2.7c0.7-1.7,1.7-3.4,3.1-4.5
			c2.4-2.1,5.8-3.4,9.3-3.4c3.4,0,6.9,1.4,9.3,3.4c1.4,1.4,2.4,2.4,3.1,4.1c0.3,1,0.7,1.7,1,2.7c0,0.7,0.3,1.4,0.3,2.4
			c0,0.3,0,0.7,0,1h2.1l0,0c6.2,0,11.3,5.2,11.3,11.3C60.4,118.7,54.9,124.2,48.7,124.2z"/>
	</g>
	<path d="M51.5,112.8c-0.3,0-0.7,0-1-0.7c-4.5-4.8-11-7.6-17.5-7.6c-6.9,0-12.7,2.7-17.5,7.6c-0.7,0.7-1.4,0.7-2.1,0s-0.7-1.4,0-2.1
		c5.2-5.5,12-8.2,19.6-8.2s14.4,3.1,19.6,8.6c0.7,0.7,0.7,1.4,0,2.1C52.2,112.8,51.8,112.8,51.5,112.8z"/>
	<path d="M19.2,116.3c-0.3,0-0.7,0-1-0.3c-0.7-0.7-0.7-1.4,0-2.1c3.8-4.5,9.3-6.9,15.1-6.9s11.3,2.4,15.1,6.9c0.7,0.7,0.7,1.4,0,2.1
		c-0.7,0.7-1.4,0.7-2.1,0c-3.4-3.8-7.9-5.8-12.7-5.8s-9.6,2.1-12.7,5.8C19.9,115.9,19.5,116.3,19.2,116.3z"/>
	<path d="M41.9,119.7c-0.3,0-0.7,0-1-0.3c-2.1-2.1-4.8-3.4-7.6-3.4s-5.8,1.4-7.6,3.4c-0.7,0.7-1.4,0.7-2.1,0s-0.7-1.4,0-2.1
		c2.7-2.7,6.2-4.1,9.6-4.1c3.8,0,7.2,1.4,10,4.1c0.7,0.7,0.7,1.4,0,2.1C42.5,119.7,42.2,119.7,41.9,119.7z"/>
</g>
<g opacity="0.6">
	<path fill="#FFFFFF" d="M75.9,94.7h-1V83.2h1v4.6c0.3-0.5,0.7-0.9,1.3-1.2c0.5-0.3,1.1-0.4,1.7-0.4c0.6,0,1.2,0.1,1.6,0.4
		c0.5,0.2,0.8,0.6,1.2,1c0.3,0.4,0.5,0.9,0.7,1.4c0.1,0.5,0.2,1.1,0.2,1.7c0,0.6-0.1,1.2-0.2,1.7c-0.1,0.5-0.4,1-0.7,1.4
		c-0.3,0.4-0.7,0.7-1.2,0.9c-0.5,0.2-1,0.3-1.7,0.3c-0.3,0-0.5,0-0.8-0.1c-0.3-0.1-0.5-0.2-0.8-0.3c-0.3-0.1-0.5-0.3-0.7-0.5
		c-0.2-0.2-0.4-0.5-0.5-0.7h0V94.7z M75.9,90.5c0,0.5,0.1,1,0.2,1.4c0.1,0.4,0.3,0.8,0.5,1.1c0.2,0.3,0.5,0.6,0.9,0.7
		c0.4,0.2,0.8,0.3,1.2,0.3c0.4,0,0.8-0.1,1.1-0.2c0.3-0.1,0.6-0.4,0.9-0.6c0.3-0.3,0.5-0.6,0.6-1c0.1-0.4,0.2-0.9,0.2-1.4
		c0-0.5,0-1-0.1-1.5c-0.1-0.5-0.3-0.8-0.5-1.2c-0.2-0.3-0.5-0.6-0.9-0.8c-0.4-0.2-0.8-0.3-1.3-0.3c-0.4,0-0.8,0.1-1.2,0.3
		c-0.3,0.2-0.6,0.4-0.9,0.8c-0.2,0.3-0.4,0.7-0.6,1.1C76,89.6,75.9,90,75.9,90.5z"/>
	<path fill="#FFFFFF" d="M85.6,94.7h-1v-8.3h1v1.6h0c0.3-0.7,0.6-1.1,1-1.4c0.4-0.3,1-0.4,1.7-0.4v1c-0.5,0-1,0.1-1.3,0.3
		c-0.4,0.2-0.6,0.4-0.8,0.7c-0.2,0.3-0.4,0.7-0.4,1.1c-0.1,0.4-0.1,0.9-0.1,1.3V94.7z"/>
	<path fill="#FFFFFF" d="M93.3,94.9c-0.5,0-1-0.1-1.5-0.3c-0.5-0.2-0.9-0.5-1.2-0.8c-0.3-0.4-0.6-0.8-0.8-1.4
		c-0.2-0.5-0.3-1.2-0.3-1.9c0-0.6,0.1-1.2,0.2-1.7s0.4-1,0.7-1.4c0.3-0.4,0.7-0.7,1.2-0.9c0.5-0.2,1-0.3,1.7-0.3
		c0.7,0,1.2,0.1,1.7,0.3c0.5,0.2,0.9,0.5,1.2,0.9c0.3,0.4,0.6,0.9,0.7,1.4s0.2,1.1,0.2,1.7c0,0.7-0.1,1.3-0.3,1.8
		c-0.2,0.5-0.4,1-0.8,1.4c-0.3,0.4-0.7,0.7-1.2,0.9C94.4,94.8,93.8,94.9,93.3,94.9z M96.1,90.5c0-0.5-0.1-0.9-0.2-1.4
		c-0.1-0.4-0.3-0.8-0.5-1.1c-0.2-0.3-0.5-0.6-0.9-0.7c-0.4-0.2-0.8-0.3-1.3-0.3c-0.5,0-0.9,0.1-1.3,0.3c-0.4,0.2-0.6,0.5-0.9,0.8
		c-0.2,0.3-0.4,0.7-0.5,1.1s-0.2,0.9-0.2,1.3c0,0.5,0.1,1,0.2,1.4c0.1,0.4,0.3,0.8,0.5,1.1c0.2,0.3,0.5,0.5,0.9,0.7
		c0.4,0.2,0.8,0.3,1.2,0.3c0.5,0,0.9-0.1,1.3-0.3c0.4-0.2,0.6-0.5,0.9-0.8c0.2-0.3,0.4-0.7,0.5-1.1C96,91.4,96.1,91,96.1,90.5z"/>
	<path fill="#FFFFFF" d="M104.5,86.4h1v8.3h-1v-1.2c-0.1,0.1-0.3,0.3-0.4,0.5s-0.3,0.3-0.6,0.4c-0.2,0.1-0.5,0.2-0.7,0.3
		c-0.3,0.1-0.6,0.1-1,0.1c-0.6,0-1-0.1-1.4-0.2c-0.4-0.2-0.7-0.4-0.9-0.6c-0.2-0.3-0.4-0.6-0.5-1c-0.1-0.4-0.2-0.8-0.2-1.2v-5.5h1
		v5.4c0,0.7,0.2,1.3,0.5,1.6c0.3,0.4,0.9,0.6,1.6,0.6c0.4,0,0.7-0.1,1.1-0.2c0.3-0.2,0.6-0.4,0.8-0.6c0.2-0.3,0.4-0.6,0.5-1
		c0.1-0.4,0.2-0.8,0.2-1.3V86.4z"/>
	<path fill="#FFFFFF" d="M114.1,86.4h1v7.5c0,0.6-0.1,1.1-0.2,1.6c-0.1,0.5-0.3,1-0.6,1.3c-0.3,0.4-0.7,0.7-1.2,0.9
		c-0.5,0.2-1.1,0.3-1.9,0.3c-0.6,0-1.1-0.1-1.6-0.2c-0.4-0.2-0.8-0.3-1.1-0.6c-0.3-0.2-0.5-0.5-0.6-0.8c-0.1-0.3-0.2-0.5-0.2-0.8h1
		c0.1,0.3,0.2,0.6,0.4,0.8s0.3,0.4,0.6,0.5c0.2,0.1,0.5,0.2,0.7,0.2c0.3,0,0.5,0.1,0.8,0.1c0.6,0,1.2-0.1,1.6-0.3
		c0.4-0.2,0.7-0.5,0.9-0.9c0.2-0.4,0.3-0.8,0.4-1.2c0.1-0.5,0.1-0.9,0.1-1.4c-0.3,0.5-0.7,0.9-1.3,1.2c-0.5,0.3-1.1,0.4-1.7,0.4
		c-0.6,0-1.2-0.1-1.6-0.4c-0.5-0.2-0.8-0.6-1.2-1c-0.3-0.4-0.5-0.9-0.7-1.4c-0.1-0.5-0.2-1.1-0.2-1.7c0-0.6,0.1-1.2,0.2-1.7
		c0.1-0.5,0.4-1,0.7-1.4c0.3-0.4,0.7-0.7,1.2-0.9c0.5-0.2,1-0.3,1.7-0.3c0.3,0,0.5,0,0.8,0.1c0.3,0.1,0.5,0.2,0.8,0.3
		c0.3,0.1,0.5,0.3,0.7,0.5c0.2,0.2,0.4,0.5,0.5,0.7h0V86.4z M114.1,90.6c0-0.5-0.1-1-0.2-1.4c-0.1-0.4-0.3-0.8-0.5-1.1
		c-0.2-0.3-0.5-0.6-0.9-0.7c-0.4-0.2-0.8-0.3-1.2-0.3c-0.4,0-0.8,0.1-1.1,0.2c-0.3,0.1-0.6,0.4-0.9,0.6c-0.3,0.3-0.5,0.6-0.6,1
		c-0.1,0.4-0.2,0.9-0.2,1.4c0,0.5,0,1,0.1,1.5c0.1,0.5,0.3,0.8,0.5,1.2c0.2,0.3,0.5,0.6,0.9,0.8c0.4,0.2,0.8,0.3,1.3,0.3
		c0.4,0,0.8-0.1,1.2-0.3c0.3-0.2,0.6-0.4,0.9-0.8c0.2-0.3,0.4-0.7,0.6-1.1S114.1,91,114.1,90.6z"/>
	<path fill="#FFFFFF" d="M117.5,94.7V83.2h1v4.4c0.4-0.4,0.8-0.7,1.2-1c0.4-0.3,0.9-0.4,1.5-0.4c0.5,0,1,0.1,1.4,0.3
		c0.4,0.2,0.8,0.5,1.1,0.9c0.2,0.3,0.3,0.6,0.4,0.9c0,0.3,0.1,0.6,0.1,1v5.4h-1v-5.4c0-0.7-0.2-1.3-0.5-1.7
		c-0.3-0.4-0.9-0.6-1.6-0.6c-0.3,0-0.6,0-0.8,0.1c-0.2,0.1-0.5,0.2-0.7,0.4c-0.2,0.1-0.4,0.3-0.5,0.5c-0.1,0.2-0.2,0.4-0.3,0.6
		c-0.1,0.3-0.2,0.5-0.2,0.8c0,0.2,0,0.5,0,0.8v4.5H117.5z"/>
	<path fill="#FFFFFF" d="M129.3,94.7c-0.1,0-0.3,0.1-0.5,0.1c-0.2,0.1-0.4,0.1-0.6,0.1c-0.5,0-0.8-0.1-1.1-0.4
		c-0.3-0.2-0.4-0.7-0.4-1.3v-6.1h-1.2v-0.8h1.2v-2.3h1v2.3h1.6v0.8h-1.6v5.7c0,0.2,0,0.4,0,0.5c0,0.1,0,0.3,0.1,0.4
		c0.1,0.1,0.1,0.2,0.2,0.2c0.1,0,0.3,0.1,0.5,0.1c0.1,0,0.3,0,0.4,0c0.1,0,0.3,0,0.4-0.1V94.7z"/>
	<path fill="#FFFFFF" d="M138.2,94.7c-0.1,0-0.3,0.1-0.5,0.1c-0.2,0.1-0.4,0.1-0.6,0.1c-0.5,0-0.8-0.1-1.1-0.4
		c-0.3-0.2-0.4-0.7-0.4-1.3v-6.1h-1.2v-0.8h1.2v-2.3h1v2.3h1.6v0.8h-1.6v5.7c0,0.2,0,0.4,0,0.5c0,0.1,0,0.3,0.1,0.4
		c0.1,0.1,0.1,0.2,0.2,0.2c0.1,0,0.3,0.1,0.5,0.1c0.1,0,0.3,0,0.4,0c0.1,0,0.3,0,0.4-0.1V94.7z"/>
	<path fill="#FFFFFF" d="M143,94.9c-0.5,0-1-0.1-1.5-0.3c-0.5-0.2-0.9-0.5-1.2-0.8c-0.3-0.4-0.6-0.8-0.8-1.4
		c-0.2-0.5-0.3-1.2-0.3-1.9c0-0.6,0.1-1.2,0.2-1.7c0.2-0.5,0.4-1,0.7-1.4c0.3-0.4,0.7-0.7,1.2-0.9c0.5-0.2,1-0.3,1.7-0.3
		c0.7,0,1.2,0.1,1.7,0.3c0.5,0.2,0.9,0.5,1.2,0.9c0.3,0.4,0.6,0.9,0.7,1.4c0.2,0.5,0.2,1.1,0.2,1.7c0,0.7-0.1,1.3-0.3,1.8
		c-0.2,0.5-0.4,1-0.8,1.4c-0.3,0.4-0.7,0.7-1.2,0.9C144.1,94.8,143.6,94.9,143,94.9z M145.9,90.5c0-0.5-0.1-0.9-0.2-1.4
		c-0.1-0.4-0.3-0.8-0.5-1.1c-0.2-0.3-0.5-0.6-0.9-0.7c-0.4-0.2-0.8-0.3-1.3-0.3c-0.5,0-0.9,0.1-1.3,0.3c-0.4,0.2-0.6,0.5-0.9,0.8
		c-0.2,0.3-0.4,0.7-0.5,1.1s-0.2,0.9-0.2,1.3c0,0.5,0.1,1,0.2,1.4c0.1,0.4,0.3,0.8,0.5,1.1c0.2,0.3,0.5,0.5,0.9,0.7
		c0.4,0.2,0.8,0.3,1.2,0.3c0.5,0,0.9-0.1,1.3-0.3c0.4-0.2,0.6-0.5,0.9-0.8c0.2-0.3,0.4-0.7,0.5-1.1C145.8,91.4,145.9,91,145.9,90.5z
		"/>
	<path fill="#FFFFFF" d="M153,96.9c0.1,0,0.3,0,0.4,0.1c0.1,0,0.3,0,0.4,0c0.3,0,0.5-0.1,0.7-0.3c0.2-0.2,0.3-0.4,0.4-0.6
		c0.1-0.2,0.2-0.5,0.3-0.8c0.1-0.3,0.2-0.5,0.3-0.7l-3.2-8.3h1.1l2.7,7.1l2.7-7.1h1l-3.1,8.2c-0.2,0.5-0.4,1-0.6,1.4
		c-0.2,0.4-0.4,0.8-0.6,1.1c-0.2,0.3-0.4,0.5-0.7,0.7c-0.2,0.2-0.5,0.2-0.9,0.2c-0.2,0-0.3,0-0.5,0c-0.2,0-0.3,0-0.4-0.1V96.9z"/>
	<path fill="#FFFFFF" d="M164.4,94.9c-0.5,0-1-0.1-1.5-0.3c-0.5-0.2-0.9-0.5-1.2-0.8c-0.3-0.4-0.6-0.8-0.8-1.4
		c-0.2-0.5-0.3-1.2-0.3-1.9c0-0.6,0.1-1.2,0.2-1.7c0.2-0.5,0.4-1,0.7-1.4c0.3-0.4,0.7-0.7,1.2-0.9c0.5-0.2,1-0.3,1.7-0.3
		c0.7,0,1.2,0.1,1.7,0.3c0.5,0.2,0.9,0.5,1.2,0.9c0.3,0.4,0.6,0.9,0.7,1.4c0.2,0.5,0.2,1.1,0.2,1.7c0,0.7-0.1,1.3-0.3,1.8
		c-0.2,0.5-0.4,1-0.8,1.4c-0.3,0.4-0.7,0.7-1.2,0.9C165.5,94.8,165,94.9,164.4,94.9z M167.2,90.5c0-0.5-0.1-0.9-0.2-1.4
		c-0.1-0.4-0.3-0.8-0.5-1.1c-0.2-0.3-0.5-0.6-0.9-0.7c-0.4-0.2-0.8-0.3-1.3-0.3c-0.5,0-0.9,0.1-1.3,0.3c-0.4,0.2-0.6,0.5-0.9,0.8
		c-0.2,0.3-0.4,0.7-0.5,1.1s-0.2,0.9-0.2,1.3c0,0.5,0.1,1,0.2,1.4c0.1,0.4,0.3,0.8,0.5,1.1c0.2,0.3,0.5,0.5,0.9,0.7
		c0.4,0.2,0.8,0.3,1.2,0.3c0.5,0,0.9-0.1,1.3-0.3c0.4-0.2,0.6-0.5,0.9-0.8c0.2-0.3,0.4-0.7,0.5-1.1C167.1,91.4,167.2,91,167.2,90.5z
		"/>
	<path fill="#FFFFFF" d="M175.6,86.4h1v8.3h-1v-1.2c-0.1,0.1-0.3,0.3-0.4,0.5c-0.2,0.2-0.3,0.3-0.6,0.4c-0.2,0.1-0.5,0.2-0.7,0.3
		c-0.3,0.1-0.6,0.1-1,0.1c-0.6,0-1-0.1-1.4-0.2c-0.4-0.2-0.7-0.4-0.9-0.6c-0.2-0.3-0.4-0.6-0.5-1c-0.1-0.4-0.2-0.8-0.2-1.2v-5.5h1
		v5.4c0,0.7,0.2,1.3,0.5,1.6c0.3,0.4,0.9,0.6,1.6,0.6c0.4,0,0.7-0.1,1.1-0.2c0.3-0.2,0.6-0.4,0.8-0.6c0.2-0.3,0.4-0.6,0.5-1
		c0.1-0.4,0.2-0.8,0.2-1.3V86.4z"/>
	<path fill="#FFFFFF" d="M184.4,94.7h-1V83.2h1v4.6c0.3-0.5,0.7-0.9,1.3-1.2s1.1-0.4,1.7-0.4c0.6,0,1.2,0.1,1.6,0.4
		c0.5,0.2,0.8,0.6,1.2,1c0.3,0.4,0.5,0.9,0.7,1.4c0.1,0.5,0.2,1.1,0.2,1.7c0,0.6-0.1,1.2-0.2,1.7c-0.1,0.5-0.4,1-0.7,1.4
		c-0.3,0.4-0.7,0.7-1.2,0.9c-0.5,0.2-1,0.3-1.7,0.3c-0.3,0-0.5,0-0.8-0.1c-0.3-0.1-0.5-0.2-0.8-0.3c-0.3-0.1-0.5-0.3-0.7-0.5
		c-0.2-0.2-0.4-0.5-0.5-0.7h0V94.7z M184.4,90.5c0,0.5,0.1,1,0.2,1.4c0.1,0.4,0.3,0.8,0.5,1.1c0.2,0.3,0.5,0.6,0.9,0.7
		c0.4,0.2,0.8,0.3,1.2,0.3c0.4,0,0.8-0.1,1.1-0.2c0.3-0.1,0.6-0.4,0.9-0.6c0.3-0.3,0.5-0.6,0.6-1c0.1-0.4,0.2-0.9,0.2-1.4
		c0-0.5,0-1-0.1-1.5c-0.1-0.5-0.3-0.8-0.5-1.2c-0.2-0.3-0.5-0.6-0.9-0.8c-0.4-0.2-0.8-0.3-1.3-0.3c-0.4,0-0.8,0.1-1.2,0.3
		c-0.3,0.2-0.6,0.4-0.9,0.8s-0.4,0.7-0.6,1.1C184.4,89.6,184.4,90,184.4,90.5z"/>
	<path fill="#FFFFFF" d="M193,96.9c0.1,0,0.3,0,0.4,0.1c0.1,0,0.3,0,0.4,0c0.3,0,0.5-0.1,0.7-0.3c0.2-0.2,0.3-0.4,0.4-0.6
		c0.1-0.2,0.2-0.5,0.3-0.8s0.2-0.5,0.3-0.7l-3.2-8.3h1.1l2.7,7.1l2.7-7.1h1l-3.1,8.2c-0.2,0.5-0.4,1-0.6,1.4
		c-0.2,0.4-0.4,0.8-0.6,1.1c-0.2,0.3-0.4,0.5-0.7,0.7c-0.2,0.2-0.5,0.2-0.9,0.2c-0.2,0-0.3,0-0.5,0c-0.2,0-0.3,0-0.4-0.1V96.9z"/>
</g>
</svg>
