<?xml version="1.0" encoding="utf-8"?>
<!-- Generator: Adobe Illustrator 17.1.0, SVG Export Plug-In . SVG Version: 6.00 Build 0)  -->
<!DOCTYPE svg PUBLIC "-//W3C//DTD SVG 1.1//EN" "http://www.w3.org/Graphics/SVG/1.1/DTD/svg11.dtd">
<svg version="1.1" id="Layer_1" xmlns="http://www.w3.org/2000/svg" xmlns:xlink="http://www.w3.org/1999/xlink" x="0px" y="0px"
	 viewBox="0 76.9 96 19.1" enable-background="new 0 76.9 96 19.1" xml:space="preserve">
<g opacity="0.6">
	<path fill="#FFFFFF" d="M42.5,94.4v-9.8l2-0.2v0.6c0.5-0.4,1-0.6,1.6-0.6c1.1,0,2,0.4,2.6,1.1s1,1.5,1,2.5s-0.3,1.8-1,2.5
		c-0.6,0.7-1.5,1.1-2.6,1.1c-0.7,0-1.2-0.2-1.6-0.6v3.5H42.5z M44.5,87.2v1.2c0.1,0.8,0.6,1.2,1.5,1.4c1.2-0.1,1.8-0.7,1.9-1.8
		c0-1.3-0.7-2-1.9-2C45.1,86.1,44.6,86.5,44.5,87.2z"/>
	<path fill="#FFFFFF" d="M51.9,85.1c0.5-0.5,1.1-0.8,1.8-0.8c0.2,0,0.4,0,0.6,0l-0.3,2c-0.2-0.2-0.6-0.3-1-0.4c-0.5,0-0.9,0.4-1.2,1
		v4.3h-2v-6.8l2-0.2V85.1z"/>
	<path fill="#FFFFFF" d="M54.4,87.9c0-1,0.4-1.9,1-2.6c0.6-0.6,1.5-1,2.6-1s1.9,0.4,2.5,1c0.6,0.6,0.9,1.5,0.9,2.6v0.7h-4.9
		c0,0.4,0.2,0.7,0.5,0.9c0.3,0.2,0.6,0.3,1,0.3c0.6,0,1.2-0.2,1.8-0.6l1.2,1.2c-0.5,0.7-1.5,1.1-2.9,1.1c-1,0-1.9-0.4-2.6-1
		C54.7,89.8,54.4,88.9,54.4,87.9z M58.9,86.3c-0.3-0.2-0.6-0.3-1-0.3c-0.4,0-0.7,0.1-1,0.3c-0.3,0.2-0.4,0.5-0.4,0.9h2.8
		C59.3,86.8,59.2,86.5,58.9,86.3z"/>
	<path fill="#FFFFFF" d="M65.9,84.6c0.4,0.2,0.7,0.4,1,0.7l-1.1,1.2c-0.3-0.4-0.7-0.6-1.2-0.6c-0.5,0-0.8,0.1-1,0.3
		c-0.2,0.2-0.2,0.4,0,0.5c0.2,0.2,0.5,0.3,1,0.4c0.7,0.1,1.3,0.3,1.7,0.6c0.4,0.4,0.7,0.9,0.7,1.8c0,0.7-0.3,1.2-0.8,1.6
		c-0.5,0.4-1.2,0.5-1.8,0.5c-0.7,0-1.2-0.1-1.7-0.3c-0.4-0.2-0.8-0.4-1.2-0.8l1.1-1.2c0.3,0.4,0.8,0.6,1.5,0.6
		c0.5,0,0.9-0.1,1.1-0.3c0.2-0.2,0.2-0.4,0.1-0.5c-0.1-0.2-0.5-0.3-1.1-0.4c-0.6-0.1-1.1-0.2-1.6-0.5c-0.5-0.3-0.7-0.8-0.7-1.6
		c0-0.7,0.3-1.3,0.8-1.7c0.5-0.4,1.1-0.6,1.7-0.6C65,84.3,65.5,84.4,65.9,84.6z"/>
	<path fill="#FFFFFF" d="M67.2,87.9c0-1,0.4-1.9,1-2.6c0.6-0.6,1.5-1,2.6-1s1.9,0.4,2.5,1c0.6,0.6,0.9,1.5,0.9,2.6v0.7h-4.9
		c0,0.4,0.2,0.7,0.5,0.9c0.3,0.2,0.6,0.3,1,0.3c0.6,0,1.2-0.2,1.8-0.6l1.2,1.2c-0.5,0.7-1.5,1.1-2.9,1.1c-1,0-1.9-0.4-2.6-1
		C67.4,89.8,67.2,88.9,67.2,87.9z M71.7,86.3c-0.3-0.2-0.6-0.3-1-0.3c-0.4,0-0.7,0.1-1,0.3c-0.3,0.2-0.4,0.5-0.4,0.9h2.8
		C72.1,86.8,71.9,86.5,71.7,86.3z"/>
	<path fill="#FFFFFF" d="M76.6,86.9v4.5h-2v-6.8l2-0.2V85c0.4-0.4,1-0.6,1.7-0.6c0.9,0,1.6,0.3,2,0.8c0.4,0.5,0.7,1.2,0.7,1.9v4.4
		h-2v-3.8c0-0.4-0.1-0.8-0.4-1.1S78.2,86,77.7,86C77.3,86.1,76.9,86.4,76.6,86.9z"/>
	<path fill="#FFFFFF" d="M82.5,90.5c-0.7-0.6-1.1-1.4-1.1-2.3v-0.7c0-1,0.4-1.7,1.1-2.3c0.7-0.6,1.5-0.9,2.5-0.9
		c1.2,0,2,0.4,2.8,1.2l-1.4,1.1C86,86.2,85.5,86,85,86c-0.4,0-0.9,0.2-1.2,0.6s-0.5,0.8-0.5,1.3c0,0.5,0.2,1,0.5,1.3
		c0.3,0.4,0.8,0.6,1.2,0.6c0.5,0,1-0.2,1.4-0.6l1.4,1.1C87,91,86.1,91.4,85,91.4C84,91.4,83.2,91.1,82.5,90.5z"/>
	<path fill="#FFFFFF" d="M87.9,87.9c0-1,0.4-1.9,1-2.6c0.6-0.6,1.5-1,2.6-1s1.9,0.4,2.5,1c0.6,0.6,0.9,1.5,0.9,2.6v0.7H90
		c0,0.4,0.2,0.7,0.5,0.9c0.3,0.2,0.6,0.3,1,0.3c0.6,0,1.2-0.2,1.8-0.6l1.2,1.2c-0.5,0.7-1.5,1.1-2.9,1.1c-1,0-1.9-0.4-2.6-1
		C88.2,89.8,87.9,88.9,87.9,87.9z M92.4,86.3c-0.3-0.2-0.6-0.3-1-0.3s-0.7,0.1-1,0.3c-0.3,0.2-0.4,0.5-0.4,0.9h2.8
		C92.9,86.8,92.7,86.5,92.4,86.3z"/>
</g>
<g>
	<path fill="#FFFFFF" d="M21.7,85.2c0.9-0.6,2-0.8,3.1-0.8c0.8,0,1.5,0.2,2,0.7c0.5,0.4,0.7,1.2,0.7,2.1v4.2h-2v-0.6
		c-0.6,0.4-1.1,0.6-1.6,0.6c-1,0-1.6-0.2-2.1-0.6c-0.4-0.4-0.7-1-0.7-1.7c0-0.6,0.2-1.2,0.7-1.8c0.4-0.5,1.2-0.8,2.2-0.8
		c0.4,0,1,0.2,1.6,0.4v-0.2c0-0.5-0.4-0.8-1.2-0.8c-0.8,0-1.5,0.2-2,0.4L21.7,85.2z M25.6,89.3v-0.8c-0.2-0.4-0.6-0.5-1.3-0.5
		c-0.8,0.1-1.3,0.4-1.3,1c0,0.6,0.5,0.9,1.3,0.9C25,89.9,25.4,89.7,25.6,89.3z"/>
	<path fill="#FFFFFF" d="M30.4,86.9v4.5h-2v-6.8l2-0.2V85c0.4-0.4,1-0.6,1.7-0.6c0.9,0,1.6,0.3,2,0.8c0.4,0.5,0.7,1.2,0.7,1.9v4.4
		h-2v-3.8c0-0.4-0.1-0.8-0.4-1.1c-0.2-0.3-0.6-0.4-1.1-0.4C31,86.1,30.6,86.4,30.4,86.9z"/>
	<path fill="#FFFFFF" d="M39.9,89v-4.6h2v6.5c0,1-0.3,1.8-0.9,2.5s-1.3,1-2.2,1.1l-0.4,0c-1,0-1.9-0.4-2.7-1.2l0.9-1.1
		c0.6,0.4,1.1,0.6,1.6,0.7c0.6,0,1.1-0.2,1.3-0.4c0.2-0.3,0.4-0.7,0.4-1.3v-0.4c-0.5,0.4-1.1,0.6-1.7,0.6c-0.9,0-1.6-0.3-2-0.8
		c-0.4-0.5-0.7-1.2-0.7-1.9v-4.4h2v3.9c0,0.4,0.1,0.8,0.4,1.1c0.2,0.3,0.6,0.4,1.1,0.4C39.2,89.7,39.6,89.4,39.9,89z"/>
</g>
<g>
	<path opacity="0.6" fill="#FFFFFF" d="M14.7,83.7c-0.1-1-0.6-1.9-1.2-2.7c-0.4-0.5-1-0.9-1.6-1.2s-1.2-0.4-2-0.4
		c-0.6,0-1.3,0.2-1.9,0.4C7.5,80.2,7,80.5,6.5,81c-0.7,0.7-1.2,1.7-1.2,2.7c-2.4,0.1-4.3,2-4.3,4.4c0,2.4,2,4.4,4.4,4.4h5.2l3.9,2.5
		v-2.5h0.2c2.4,0,4.4-2,4.4-4.4C19,85.7,17.1,83.7,14.7,83.7z"/>
	<g>
		<path fill="#FFFFFF" d="M14.6,91.4h-0.2h-1v1V93l-0.9-0.6l-1.6-1H9.1H5.4c-1.8,0-3.3-1.5-3.3-3.3c0-1.8,1.4-3.3,3.2-3.3
			c0,0,0,0,0.1,0h0.7c0-0.1,0-0.2,0-0.3c0-0.2,0-0.5,0.1-0.7c0.1-0.3,0.2-0.5,0.3-0.8c0.2-0.4,0.5-0.9,0.9-1.2c0.7-0.6,1.7-1,2.7-1
			c1,0,2,0.4,2.7,1c0.4,0.4,0.7,0.7,0.9,1.2c0.1,0.3,0.2,0.5,0.3,0.8c0,0.2,0.1,0.4,0.1,0.7c0,0.1,0,0.2,0,0.3h0.6l0,0
			c1.8,0,3.3,1.5,3.3,3.3C18,89.9,16.4,91.4,14.6,91.4z"/>
	</g>
	<path d="M15.4,88.2c-0.1,0-0.2,0-0.3-0.2c-1.3-1.4-3.2-2.2-5.1-2.2c-2,0-3.7,0.8-5.1,2.2c-0.2,0.2-0.4,0.2-0.6,0
		c-0.2-0.2-0.2-0.4,0-0.6C5.8,85.8,7.8,85,10,85s4.2,0.9,5.7,2.5c0.2,0.2,0.2,0.4,0,0.6C15.6,88.1,15.5,88.2,15.4,88.2z"/>
	<path d="M6,89.4c-0.1,0-0.2,0-0.3-0.1c-0.2-0.2-0.2-0.4,0-0.6c1.1-1.3,2.7-2,4.4-2s3.3,0.7,4.4,2c0.2,0.2,0.2,0.4,0,0.6
		c-0.2,0.2-0.4,0.2-0.6,0c-1-1.1-2.3-1.7-3.7-1.7s-2.8,0.6-3.7,1.7C6.2,89.3,6.1,89.4,6,89.4z"/>
	<path d="M12.6,90.2c-0.1,0-0.2,0-0.3-0.1c-0.6-0.6-1.4-1-2.2-1c-0.8,0-1.7,0.4-2.2,1c-0.2,0.2-0.4,0.2-0.6,0
		c-0.2-0.2-0.2-0.4,0-0.6c0.8-0.8,1.8-1.2,2.8-1.2c1.1,0,2.1,0.4,2.9,1.2c0.2,0.2,0.2,0.4,0,0.6C12.8,90.2,12.7,90.2,12.6,90.2z"/>
</g>
<text transform="matrix(1 0 0 1 20.9169 82.6875)" opacity="0.6" fill="#FFFFFF" font-family="'Helvetica-Light'" font-size="4.5915">brought to you by</text>
</svg>
