<?xml version="1.0" encoding="utf-8"?>
<!-- Generator: Adobe Illustrator 17.1.0, SVG Export Plug-In . SVG Version: 6.00 Build 0)  -->
<!DOCTYPE svg PUBLIC "-//W3C//DTD SVG 1.1//EN" "http://www.w3.org/Graphics/SVG/1.1/DTD/svg11.dtd">
<svg version="1.1" id="Layer_1" xmlns="http://www.w3.org/2000/svg" xmlns:xlink="http://www.w3.org/1999/xlink" x="0px" y="0px"
	 viewBox="0 35.5 96 25" enable-background="new 0 35.5 96 25" xml:space="preserve">
<g>
	<path fill="#FFFFFF" d="M27.4,42h2v10.4c0,0.9-0.1,1.7-0.4,2.3c-0.3,0.6-0.6,1-1.1,1.4c-0.4,0.3-0.9,0.6-1.4,0.7
		c-0.5,0.1-0.9,0.2-1.4,0.2c-1,0-1.9-0.3-2.6-0.8c-0.7-0.5-1.2-1.3-1.3-2.4l1.9-0.4c0.1,0.5,0.3,1,0.7,1.3c0.3,0.3,0.8,0.5,1.3,0.5
		c0.5,0,0.9-0.1,1.2-0.3c0.3-0.2,0.5-0.4,0.7-0.8c0.2-0.3,0.3-0.7,0.3-1.1c0.1-0.4,0.1-0.8,0.1-1.2V42z"/>
	<path fill="#FFFFFF" d="M39.9,56.6H38v-1.5h0c-0.2,0.5-0.6,0.9-1.2,1.3c-0.6,0.3-1.2,0.5-2,0.5c-0.5,0-0.9-0.1-1.4-0.2
		c-0.4-0.1-0.8-0.4-1.1-0.7c-0.3-0.3-0.6-0.7-0.8-1.2c-0.2-0.5-0.3-1-0.3-1.7v-6.3h1.9v5.8c0,0.5,0.1,0.8,0.2,1.2
		c0.1,0.3,0.3,0.6,0.5,0.8c0.2,0.2,0.4,0.3,0.7,0.4c0.3,0.1,0.5,0.1,0.8,0.1c0.4,0,0.7-0.1,1.1-0.2s0.6-0.3,0.9-0.6
		c0.2-0.3,0.4-0.6,0.6-1c0.1-0.4,0.2-0.9,0.2-1.5v-5h1.9V56.6z"/>
	<path fill="#FFFFFF" d="M46.9,49.3c-0.2-0.3-0.5-0.5-0.8-0.7c-0.3-0.2-0.7-0.3-1.2-0.3c-0.4,0-0.8,0.1-1.1,0.3
		c-0.3,0.2-0.5,0.5-0.5,0.8c0,0.3,0.1,0.5,0.3,0.7c0.2,0.2,0.4,0.3,0.7,0.4c0.3,0.1,0.5,0.2,0.8,0.2c0.3,0.1,0.5,0.1,0.7,0.1
		c0.4,0.1,0.8,0.2,1.1,0.4c0.4,0.1,0.7,0.3,0.9,0.5c0.3,0.2,0.5,0.5,0.6,0.8c0.1,0.3,0.2,0.7,0.2,1.2c0,0.5-0.1,1-0.4,1.4
		c-0.2,0.4-0.5,0.7-0.9,1c-0.4,0.2-0.8,0.4-1.3,0.5c-0.5,0.1-1,0.2-1.4,0.2c-0.8,0-1.5-0.1-2.1-0.4c-0.6-0.2-1.2-0.7-1.6-1.4
		l1.4-1.2c0.3,0.3,0.6,0.6,1,0.8c0.4,0.2,0.8,0.4,1.4,0.4c0.2,0,0.5,0,0.7-0.1c0.2,0,0.5-0.1,0.6-0.2c0.2-0.1,0.3-0.2,0.5-0.4
		c0.1-0.2,0.2-0.3,0.2-0.5c0-0.3-0.1-0.5-0.3-0.7c-0.2-0.2-0.4-0.3-0.6-0.4c-0.2-0.1-0.5-0.2-0.8-0.2c-0.3-0.1-0.5-0.1-0.7-0.2
		c-0.4-0.1-0.8-0.2-1.1-0.3c-0.4-0.1-0.7-0.3-0.9-0.5c-0.3-0.2-0.5-0.5-0.7-0.8c-0.2-0.3-0.2-0.7-0.2-1.2c0-0.5,0.1-1,0.3-1.3
		c0.2-0.4,0.5-0.7,0.8-0.9c0.4-0.2,0.7-0.4,1.2-0.6c0.4-0.1,0.9-0.2,1.3-0.2c0.7,0,1.3,0.1,1.9,0.4c0.6,0.2,1.1,0.7,1.4,1.2
		L46.9,49.3z"/>
	<path fill="#FFFFFF" d="M55,48.4h-2.7v4.4c0,0.3,0,0.5,0,0.8c0,0.3,0.1,0.5,0.2,0.7c0.1,0.2,0.2,0.4,0.4,0.5
		c0.2,0.1,0.5,0.2,0.8,0.2c0.2,0,0.4,0,0.7-0.1c0.2,0,0.4-0.1,0.6-0.2v1.7c-0.2,0.1-0.5,0.2-0.9,0.3c-0.4,0-0.6,0.1-0.8,0.1
		c-0.7,0-1.3-0.1-1.7-0.3c-0.4-0.2-0.7-0.5-0.9-0.8c-0.2-0.3-0.3-0.7-0.3-1.1c0-0.4-0.1-0.8-0.1-1.2v-5.1h-2.1v-1.6h2.1v-2.7h1.9
		v2.7H55V48.4z"/>
	<path fill="#FFFFFF" d="M61.3,42h2.7l6.3,14.6h-3.6l-1.3-3.1h-5.7l-1.2,3.1H55L61.3,42z M62.5,46.2l-1.8,4.5h3.6L62.5,46.2z"/>
	<path fill="#FFFFFF" d="M70.7,42h5.4c0.8,0,1.5,0.1,2.1,0.2c0.7,0.1,1.3,0.4,1.8,0.7c0.5,0.3,0.9,0.8,1.2,1.4
		c0.3,0.6,0.4,1.3,0.4,2.2c0,0.9-0.1,1.6-0.4,2.1c-0.3,0.6-0.7,1-1.1,1.4c-0.5,0.3-1.1,0.6-1.7,0.7c-0.7,0.1-1.4,0.2-2.1,0.2h-2.3
		v5.7h-3.2V42z M73.9,48.2h2.1c0.3,0,0.6,0,0.8-0.1c0.3-0.1,0.5-0.1,0.7-0.3c0.2-0.1,0.4-0.3,0.5-0.5c0.1-0.2,0.2-0.5,0.2-0.9
		c0-0.4-0.1-0.7-0.3-0.9c-0.2-0.2-0.4-0.4-0.7-0.5s-0.6-0.2-0.9-0.2c-0.3,0-0.6-0.1-0.9-0.1h-1.6V48.2z"/>
	<path fill="#FFFFFF" d="M82.6,42h3.2v14.6h-3.2V42z"/>
	<path fill="#FFFFFF" d="M93,49.5c-0.5-0.6-1.1-0.8-1.8-0.8c-0.3,0-0.5,0.1-0.8,0.2s-0.4,0.3-0.4,0.6c0,0.2,0.1,0.4,0.4,0.5
		c0.3,0.1,0.6,0.2,1,0.3c0.4,0.1,0.8,0.2,1.3,0.3c0.4,0.1,0.9,0.3,1.3,0.5c0.4,0.2,0.7,0.5,1,0.9c0.3,0.4,0.4,0.9,0.4,1.5
		c0,0.6-0.1,1.2-0.4,1.6c-0.3,0.4-0.6,0.8-1.1,1c-0.4,0.3-0.9,0.4-1.5,0.5c-0.5,0.1-1.1,0.2-1.6,0.2c-0.7,0-1.4-0.1-2.1-0.3
		c-0.7-0.2-1.3-0.6-1.8-1.1l1.9-2.1c0.3,0.4,0.6,0.6,1,0.8c0.4,0.2,0.8,0.3,1.2,0.3c0.4,0,0.7-0.1,1-0.2c0.3-0.1,0.4-0.3,0.4-0.6
		c0-0.3-0.1-0.5-0.4-0.6c-0.3-0.1-0.6-0.2-1-0.3c-0.4-0.1-0.8-0.2-1.3-0.3c-0.4-0.1-0.9-0.3-1.3-0.5c-0.4-0.2-0.7-0.5-1-0.9
		c-0.3-0.4-0.4-0.9-0.4-1.5c0-0.6,0.1-1.1,0.4-1.5c0.2-0.4,0.6-0.8,0.9-1.1c0.4-0.3,0.8-0.5,1.3-0.6c0.5-0.1,1-0.2,1.5-0.2
		c0.7,0,1.3,0.1,2,0.3c0.7,0.2,1.2,0.5,1.7,1L93,49.5z"/>
</g>
<path fill="#FFFFFF" d="M19.3,49.2L19.3,49.2l1.6-0.3c0-0.4,0-0.8,0-1.2l-1.6-0.3l0-0.1c0-0.3-0.1-0.6-0.1-0.9l0-0.1l1.4-0.7
	c-0.1-0.4-0.2-0.8-0.4-1.2l-0.7,0.1l-1.7,5.9l0,0c-0.6,1.7-1.7,3.1-3.2,3.9l0,0c0,0-0.1,0.1-0.1,0.1c0,0-0.1,0.1-0.2,0.1
	c0,0-0.1,0-0.1,0.1c0,0-0.1,0-0.1,0.1c0,0,0,0,0,0c0,0,0,0-0.1,0l0,0c-1.5,0.7-3.3,1-5,0.6l-0.6-0.2c-1.7-0.6-3-1.7-3.9-3
	c0,0,0,0,0,0l0,0c0-0.1-0.1-0.1-0.1-0.2c0,0,0,0,0-0.1c0-0.1-0.1-0.1-0.1-0.2c0,0-0.1-0.1-0.1-0.1l0,0c0,0,0,0,0,0
	c-0.8-1.5-1-3.3-0.6-5.1l4.6,1.3c0-0.1,0-0.2,0.1-0.4c0,0.1-0.1,0.2-0.1,0.4c-0.1,0.5,0,1,0.2,1.4c0,0,0,0,0,0
	c0.1,0.2,0.2,0.4,0.4,0.6c0,0,0,0,0.1,0.1c0.3,0.3,0.6,0.6,1,0.7c0,0,0,0,0,0l0.6,0.2c0,0,0,0,0,0c0.5,0.1,1,0,1.4-0.1l0,0
	c0,0,0,0,0,0c0.1,0,0.1-0.1,0.2-0.1c0.1,0,0.1-0.1,0.2-0.1c0,0,0.1-0.1,0.1-0.1l0,0c0.4-0.3,0.7-0.6,0.9-1.1l0,0l0.7-2.4
	c0,0,0,0-0.1,0l0.1,0l2.1-7.3c0,0,0,0,0,0L15,40.7l-0.1,0c-0.3-0.1-0.6-0.3-0.8-0.4l-0.1,0l0.2-1.7c-0.2-0.1-0.4-0.1-0.6-0.2
	c-0.2-0.1-0.4-0.1-0.6-0.1l-0.7,1.5l-0.1,0c-0.3-0.1-0.6-0.1-0.9-0.1l-0.1,0L10.9,38c-0.4,0-0.8,0-1.2,0.1l-0.2,1.7l-0.1,0
	c-0.3,0.1-0.6,0.1-0.9,0.2l-0.1,0l-0.9-1.5c-0.4,0.1-0.7,0.3-1.1,0.4l0.4,1.7l-0.1,0c-0.3,0.2-0.6,0.3-0.8,0.5l0,0L4.7,40
	c-0.3,0.2-0.6,0.5-0.9,0.8l0.9,1.4l0,0C4.4,42.5,4.2,42.8,4,43l0,0l-1.6-0.6c-0.2,0.3-0.4,0.7-0.6,1l1.3,1.1l0,0.1
	c-0.1,0.3-0.2,0.6-0.3,0.9l0,0.1l-1.7-0.1c-0.1,0.4-0.2,0.8-0.2,1.1l1.6,0.6l0,0.1c0,0.3,0,0.7,0,1l0,0.1l-1.6,0.5
	c0,0.4,0.1,0.8,0.2,1.2l1.6,0l0,0.1c0.1,0.3,0.2,0.6,0.3,1l0,0.1l-1.3,1c0.2,0.4,0.3,0.7,0.5,1l1.5-0.5l0,0c0.2,0.3,0.4,0.6,0.6,0.8
	l0,0l-0.9,1.3c0.3,0.3,0.6,0.6,0.9,0.8l1.3-0.9l0,0c0.3,0.2,0.5,0.4,0.8,0.6l0,0l-0.4,1.5c0.3,0.2,0.7,0.4,1.1,0.5l0.9-1.3l0.1,0
	c0.1,0,0.3,0.1,0.4,0.1c0.2,0.1,0.4,0.1,0.5,0.1l0.1,0l0.1,1.5c0.4,0.1,0.8,0.1,1.2,0.1l0.4-1.5l0.1,0c0.3,0,0.7,0,1-0.1l0.1,0
	l0.6,1.4c0.4-0.1,0.8-0.2,1.2-0.3l-0.1-1.5l0.1,0c0.3-0.1,0.6-0.2,0.9-0.4l0.1,0l1,1.2c0.4-0.2,0.7-0.4,1-0.6l-0.6-1.4l0,0
	c0.3-0.2,0.5-0.4,0.7-0.7l0,0l1.3,0.8c0.3-0.3,0.5-0.6,0.8-0.9l-1-1.2l0,0c0.2-0.3,0.3-0.6,0.5-0.8l0-0.1l1.5,0.3
	c0.2-0.4,0.3-0.8,0.4-1.1l-1.4-0.8l0-0.1C19.2,49.8,19.3,49.5,19.3,49.2z M13.2,40.9C13.2,40.9,13.2,40.9,13.2,40.9
	C13.2,40.9,13.2,40.9,13.2,40.9L13.2,40.9z M13.2,46.6c0.1,0.2,0.2,0.3,0.2,0.5l0,0c0,0,0,0,0,0c0,0,0,0,0,0
	C13.4,46.9,13.3,46.7,13.2,46.6C13.2,46.6,13.2,46.6,13.2,46.6z M11.4,45.3c0.1,0,0.1,0,0.2,0c0.1,0,0.1,0,0.1,0c0,0,0,0,0,0
	c0,0-0.1,0-0.1,0C11.5,45.3,11.5,45.3,11.4,45.3C11.4,45.3,11.4,45.3,11.4,45.3z M9.5,45.6C9.5,45.6,9.5,45.6,9.5,45.6
	c-0.1,0-0.1,0.1-0.2,0.1C9.4,45.7,9.4,45.6,9.5,45.6z M9.1,47.5c0-0.1,0.1-0.1,0.1-0.2c0.1-0.2,0.3-0.4,0.4-0.6
	c0.2-0.2,0.4-0.3,0.6-0.3c0.2-0.1,0.5-0.1,0.7-0.1c0.1,0,0.2,0,0.3,0.1c0.1,0,0.2,0.1,0.3,0.1c0.3,0.1,0.5,0.3,0.6,0.5
	c0.1,0.2,0.2,0.4,0.3,0.6c0.1,0.2,0.1,0.4,0,0.7c0,0.1,0,0.2,0,0.2c0,0.1-0.1,0.3-0.2,0.4c-0.1,0.2-0.3,0.4-0.4,0.5
	c-0.2,0.1-0.4,0.2-0.6,0.3c-0.2,0.1-0.4,0.1-0.7,0.1c-0.1,0-0.2,0-0.3-0.1c-0.1,0-0.2-0.1-0.3-0.1c-0.2-0.1-0.3-0.2-0.5-0.3
	c-0.2-0.2-0.3-0.4-0.4-0.6c-0.1-0.2-0.1-0.5-0.1-0.7C9.1,47.8,9.1,47.7,9.1,47.5z M8.7,43.5C8.7,43.5,8.7,43.5,8.7,43.5L8.7,43.5
	C8.7,43.5,8.7,43.5,8.7,43.5z M8.2,47.2C8.2,47.2,8.2,47.2,8.2,47.2C8.2,47.2,8.2,47.2,8.2,47.2C8.2,47.2,8.2,47.2,8.2,47.2z
	 M6.7,46.6C6.7,46.6,6.7,46.6,6.7,46.6L6.7,46.6C6.7,46.6,6.7,46.6,6.7,46.6z"/>
</svg>
