<?xml version="1.0" encoding="utf-8"?>
<!-- Generator: Adobe Illustrator 19.2.1, SVG Export Plug-In . SVG Version: 6.00 Build 0)  -->
<svg version="1.1" id="Layer_1" xmlns="http://www.w3.org/2000/svg" xmlns:xlink="http://www.w3.org/1999/xlink" x="0px" y="0px"
	 width="400px" height="220.1px" viewBox="0 0 400 220.1" style="enable-background:new 0 0 400 220.1;" xml:space="preserve">
<style type="text/css">
	.st0{fill:#FFFFFF;}
</style>
<path class="st0" d="M249.8,15.1c-11,0-20,9-20,20c0,6,2.6,11.3,6.8,15l-17.5,25.3c-1.2-0.2-2.4-0.3-3.6-0.3c-0.9,0-1.8,0.1-2.7,0.2
	l-17.5-26c3.7-3.6,5.9-8.7,5.9-14.2c0-11-9-20-20-20s-20,9-20,20c0,5.9,2.6,11.3,6.7,14.9L151,75.6c-1.3-0.3-2.7-0.4-4.2-0.4
	c-11,0-20,9-20,20s9,20,20,20s20-9,20-20c0-5.5-2.2-10.5-5.8-14.1L178.1,55c1,0.1,2,0.2,3,0.2c1.4,0,2.7-0.1,4-0.4l17.2,25.3
	c-4.2,3.7-6.9,9.1-6.9,15.1c0,11,9,20,20,20s20-9,20-20c0-5.7-2.4-10.8-6.2-14.5L247,55c0.9,0.1,1.9,0.2,2.8,0.2c11,0,20-9,20-20
	C269.8,24.1,260.8,15.1,249.8,15.1z M155.3,96.9c-0.1,0.6-0.3,1.1-0.5,1.6c-1.2,2.8-3.9,4.9-7,5.2c-0.3,0-0.6,0-0.9,0l0,0
	c-1.5,0-2.9-0.4-4.1-1c-2.7-1.5-4.5-4.3-4.5-7.5c0-0.3,0-0.6,0-0.9c0.1-1.2,0.5-2.2,1-3.2c0.3-0.5,0.6-0.9,0.9-1.4
	c0.3-0.4,0.7-0.8,1.2-1.2c0.4-0.3,0.9-0.7,1.4-0.9c1.2-0.7,2.6-1,4.1-1l0,0c0.3,0,0.6,0,0.9,0s0.6,0.1,0.9,0.1
	c0.6,0.1,1.1,0.3,1.6,0.5c0.8,0.3,1.5,0.8,2.1,1.3c0.4,0.3,0.8,0.7,1.2,1.2c0.3,0.4,0.7,0.9,0.9,1.4c0.5,1,0.9,2.1,1,3.2
	c0,0.3,0,0.6,0,0.9C155.5,95.8,155.4,96.3,155.3,96.9z M179.5,26.8c0.6-0.1,1.1-0.2,1.7-0.2c0.6,0,1.2,0.1,1.7,0.2
	c0.6,0.1,1.1,0.3,1.6,0.5c0.9,0.4,1.7,0.9,2.4,1.5c0.2,0.2,0.4,0.4,0.6,0.6c0.8,0.8,1.4,1.8,1.8,2.9c0.1,0.2,0.1,0.3,0.2,0.5
	c0.2,0.7,0.3,1.5,0.3,2.3c0,4.1-2.9,7.6-6.8,8.4c-0.6,0.1-1.1,0.2-1.7,0.2c-0.6,0-1.2-0.1-1.7-0.2c-0.6-0.1-1.1-0.3-1.6-0.5
	c-0.1-0.1-0.3-0.1-0.4-0.2l-0.2-0.1c-2.7-1.4-4.6-4.3-4.6-7.6C172.6,31,175.6,27.6,179.5,26.8z M223.9,96.9
	c-0.1,0.6-0.3,1.1-0.5,1.6c-0.5,1.3-1.4,2.4-2.4,3.3c-0.4,0.3-0.9,0.7-1.4,0.9c-0.7,0.4-1.5,0.7-2.4,0.9c-0.6,0.1-1.1,0.2-1.7,0.2
	c-0.3,0-0.6,0-0.9,0c-1.2-0.1-2.2-0.5-3.2-1c-1.7-0.9-3.1-2.4-3.8-4.2c-0.2-0.5-0.4-1.1-0.5-1.6c-0.1-0.6-0.2-1.1-0.2-1.7
	c0-0.3,0-0.6,0-0.9c0.1-1.2,0.5-2.2,1-3.2c0.3-0.5,0.6-0.9,0.9-1.4c0.3-0.4,0.7-0.8,1.2-1.2c0.4-0.3,0.9-0.7,1.4-0.9
	c1-0.5,2.1-0.9,3.2-1c0.3,0,0.6,0,0.9,0c0.6,0,1.2,0.1,1.7,0.2c0.6,0.1,1.1,0.3,1.6,0.5c0.3,0.1,0.5,0.2,0.7,0.4
	c0.5,0.3,0.9,0.6,1.4,0.9c0.4,0.3,0.8,0.7,1.2,1.2c0.3,0.4,0.7,0.9,0.9,1.4c0.2,0.3,0.3,0.7,0.5,1c0.1,0.4,0.3,0.7,0.3,1.1
	c0.1,0.3,0.1,0.7,0.2,1.1c0,0.3,0,0.6,0,0.9C224.1,95.8,224,96.3,223.9,96.9z M258.2,36.9c-0.2,0.8-0.5,1.6-0.9,2.4
	c-0.3,0.5-0.6,0.9-0.9,1.4c-0.9,1.1-2,1.9-3.3,2.4c-0.5,0.2-1.1,0.4-1.6,0.5c-0.6,0.1-1.1,0.2-1.7,0.2c-0.6,0-1.2-0.1-1.7-0.2
	c-0.6-0.1-1.1-0.3-1.6-0.5c-0.3-0.1-0.5-0.2-0.7-0.4c-0.5-0.3-0.9-0.6-1.4-0.9c-0.4-0.3-0.8-0.7-1.2-1.2c-0.3-0.4-0.7-0.9-0.9-1.4
	c-0.1-0.2-0.3-0.5-0.4-0.7c-0.2-0.5-0.4-1.1-0.5-1.6c-0.1-0.6-0.2-1.1-0.2-1.7c0-0.3,0-0.6,0-0.9c0.1-1.2,0.5-2.2,1-3.2
	c0.3-0.5,0.6-0.9,0.9-1.4c0.7-0.8,1.6-1.6,2.5-2.1c0.2-0.1,0.5-0.3,0.7-0.4c1-0.4,2.2-0.7,3.3-0.7c0.6,0,1.2,0.1,1.7,0.2
	c0.6,0.1,1.1,0.3,1.6,0.5c0.8,0.3,1.5,0.8,2.1,1.3c0.4,0.3,0.8,0.7,1.2,1.2c0.3,0.4,0.7,0.9,0.9,1.4c0.5,1,0.9,2.1,1,3.2
	c0,0.3,0,0.6,0,0.9C258.4,35.7,258.3,36.3,258.2,36.9z"/>
<g>
	<path class="st0" d="M16.4,163.5c4.9-1.8,10.2-2.7,14.8-2.7c9.8,0,15.5,3.8,15.5,12.9v26.8h-2.9v-26.1c0-8.8-5.8-10.8-12.6-10.8
		c-4.8,0-8.8,0.9-11.9,1.6v35.3h-2.9V163.5z"/>
	<path class="st0" d="M77.8,172.4c0-5.7-3.1-8.9-8.8-8.9c-4.3,0-7.8,1.1-11.1,2.9v-2.8c2.8-1.7,6.8-2.9,11.2-2.9
		c7.4,0,11.7,3.6,11.7,11.2v27.8c-2.8,0.8-6.2,1.3-9.3,1.3c-10.9,0-17.6-3.8-17.6-11.4c0-8.1,7.6-11.5,19.4-11.5h4.6L77.8,172.4
		L77.8,172.4z M77.8,180.8h-4.5c-9.9,0-16.5,2.3-16.5,8.9c0,6.2,6.4,8.9,14.6,8.9c2.4,0,4.2-0.2,6.3-0.7L77.8,180.8L77.8,180.8z"/>
	<path class="st0" d="M91,163.5c4.9-1.8,10.2-2.7,14.8-2.7c9.8,0,15.5,3.8,15.5,12.9v26.8h-2.9v-26.1c0-8.8-5.8-10.8-12.6-10.8
		c-4.8,0-8.8,0.9-11.9,1.6v35.3H91V163.5z"/>
	<path class="st0" d="M147.8,160.8c11.1,0,18.9,8.2,18.9,20.2s-7.9,20.2-18.9,20.2c-11.1,0-18.9-8.2-18.9-20.2
		C128.9,169,136.7,160.8,147.8,160.8z M147.8,163.4c-9.4,0-15.9,7.1-15.9,17.6s6.5,17.6,15.9,17.6s15.9-7.1,15.9-17.6
		S157.2,163.4,147.8,163.4z"/>
	<path class="st0" d="M171.4,193.8c3.1,3,6.9,4.7,10.9,4.7c5.7,0,9.3-2.6,9.3-7.9s-3.7-7.1-9.7-9.3c-6.7-2.3-10.3-5.1-10.3-10.8
		c0-6.1,4.6-9.8,11.1-9.8c4.2,0,7.3,1.2,9.8,3.1v3.4c-2.7-2.3-6.1-3.9-9.8-3.9c-5.2,0-8.2,2.8-8.2,7.2s2.9,6.2,8.7,8.4
		c6.3,2.3,11.2,4.4,11.2,11.7c0,7.1-5.7,10.4-12.1,10.4c-4.5,0-8.7-1.7-10.9-3.9V193.8z"/>
	<path class="st0" d="M229.7,167.2c-3-2.5-7.1-3.8-11-3.8c-8.8,0-16.2,6.5-16.2,17.4c0,10.8,7.2,17.6,16.5,17.6
		c4.6,0,8.1-1.1,11.3-3.3v2.9c-2.7,2-7.1,3.1-11.3,3.1c-10.8,0-19.6-7.8-19.6-20.3c0-12.7,9.1-20.1,19.3-20.1c4.2,0,8,1.2,11,3.2
		V167.2z"/>
	<path class="st0" d="M258.7,172.4c0-5.7-3.1-8.9-8.8-8.9c-4.3,0-7.8,1.1-11.1,2.9v-2.8c2.8-1.7,6.8-2.9,11.2-2.9
		c7.4,0,11.7,3.6,11.7,11.2v27.8c-2.8,0.8-6.2,1.3-9.3,1.3c-10.9,0-17.6-3.8-17.6-11.4c0-8.1,7.6-11.5,19.4-11.5h4.6L258.7,172.4
		L258.7,172.4z M258.7,180.8h-4.5c-9.9,0-16.5,2.3-16.5,8.9c0,6.2,6.4,8.9,14.6,8.9c2.4,0,4.2-0.2,6.3-0.7v-17.1H258.7z"/>
	<path class="st0" d="M274.9,200.4H272v-60.7h2.9V200.4z"/>
	<path class="st0" d="M285.7,180.2v0.6c0,11,6.9,17.7,16.2,17.7c5.1,0,8.9-1.2,12.9-4.5v3.1c-3.4,2.9-8.3,4-12.9,4
		c-10.5,0-19.1-7.3-19.1-20.4c0-10.8,7.8-20,18.1-20c9.6,0,15.4,6.7,15.4,17v2.4L285.7,180.2L285.7,180.2z M313.4,177.8
		c0-8.7-4.7-14.4-12.5-14.4c-7.5,0-13.7,6-15,14.4H313.4z"/>
	<path class="st0" d="M325.3,195.6c1.4,0,2.5,1.1,2.5,2.5s-1.1,2.5-2.5,2.5s-2.5-1.1-2.5-2.5S323.9,195.6,325.3,195.6z"/>
	<path class="st0" d="M336.9,150.2c0-1.4,1.2-2.4,2.4-2.4c1.2,0,2.4,1,2.4,2.4s-1.2,2.4-2.4,2.4
		C338.1,152.6,336.9,151.6,336.9,150.2z M340.8,200.4h-2.9v-38.9h2.9V200.4z"/>
	<path class="st0" d="M367.7,160.8c11.1,0,18.9,8.2,18.9,20.2s-7.9,20.2-18.9,20.2s-18.9-8.2-18.9-20.2
		C348.8,169,356.6,160.8,367.7,160.8z M367.7,163.4c-9.4,0-15.9,7.1-15.9,17.6s6.5,17.6,15.9,17.6s15.9-7.1,15.9-17.6
		S377.1,163.4,367.7,163.4z"/>
</g>
</svg>
