<?xml version="1.0" encoding="utf-8"?>
<!-- Generator: Adobe Illustrator 19.2.1, SVG Export Plug-In . SVG Version: 6.00 Build 0)  -->
<svg version="1.1" id="Layer_1" xmlns="http://www.w3.org/2000/svg" xmlns:xlink="http://www.w3.org/1999/xlink" x="0px" y="0px"
	 width="96px" height="25px" viewBox="0 0 96 25" style="enable-background:new 0 0 96 25;" xml:space="preserve">
<style type="text/css">
	.st0{fill:#FFFFFF;}
</style>
<g>
	<path class="st0" d="M19.6,10c1-0.4,2.1-0.6,3.1-0.6c2,0,3.2,0.8,3.2,2.7v5.5h-0.6v-5.4c0-1.8-1.2-2.2-2.6-2.2
		c-1,0-1.8,0.2-2.5,0.3v7.3h-0.6V10z"/>
	<path class="st0" d="M32.2,11.9c0-1.2-0.6-1.8-1.8-1.8c-0.9,0-1.6,0.2-2.3,0.6v-0.6c0.6-0.3,1.4-0.6,2.3-0.6c1.5,0,2.4,0.7,2.4,2.3
		v5.7c-0.6,0.2-1.3,0.3-1.9,0.3c-2.2,0-3.6-0.8-3.6-2.4c0-1.7,1.6-2.4,4-2.4h0.9V11.9z M32.2,13.6h-0.9c-2,0-3.4,0.5-3.4,1.8
		c0,1.3,1.3,1.8,3,1.8c0.5,0,0.9,0,1.3-0.1V13.6z"/>
	<path class="st0" d="M35,10c1-0.4,2.1-0.6,3.1-0.6c2,0,3.2,0.8,3.2,2.7v5.5h-0.6v-5.4c0-1.8-1.2-2.2-2.6-2.2c-1,0-1.8,0.2-2.5,0.3
		v7.3H35V10z"/>
	<path class="st0" d="M46.7,9.5c2.3,0,3.9,1.7,3.9,4.2c0,2.5-1.6,4.2-3.9,4.2c-2.3,0-3.9-1.7-3.9-4.2C42.8,11.2,44.4,9.5,46.7,9.5z
		 M46.7,10c-1.9,0-3.3,1.5-3.3,3.6s1.3,3.6,3.3,3.6c1.9,0,3.3-1.5,3.3-3.6S48.6,10,46.7,10z"/>
	<path class="st0" d="M51.6,16.3c0.6,0.6,1.4,1,2.2,1c1.2,0,1.9-0.5,1.9-1.6s-0.8-1.5-2-1.9c-1.4-0.5-2.1-1.1-2.1-2.2
		c0-1.3,1-2,2.3-2c0.9,0,1.5,0.3,2,0.6v0.7c-0.6-0.5-1.3-0.8-2-0.8c-1.1,0-1.7,0.6-1.7,1.5s0.6,1.3,1.8,1.7c1.3,0.5,2.3,0.9,2.3,2.4
		c0,1.5-1.2,2.2-2.5,2.2c-0.9,0-1.8-0.3-2.2-0.8V16.3z"/>
	<path class="st0" d="M63.6,10.8C63,10.3,62.1,10,61.3,10c-1.8,0-3.4,1.3-3.4,3.6c0,2.2,1.5,3.6,3.4,3.6c1,0,1.7-0.2,2.3-0.7v0.6
		c-0.6,0.4-1.5,0.6-2.3,0.6c-2.2,0-4-1.6-4-4.2c0-2.6,1.9-4.1,4-4.1c0.9,0,1.7,0.2,2.3,0.7V10.8z"/>
	<path class="st0" d="M69.6,11.9c0-1.2-0.6-1.8-1.8-1.8c-0.9,0-1.6,0.2-2.3,0.6v-0.6c0.6-0.3,1.4-0.6,2.3-0.6c1.5,0,2.4,0.7,2.4,2.3
		v5.7c-0.6,0.2-1.3,0.3-1.9,0.3c-2.2,0-3.6-0.8-3.6-2.4c0-1.7,1.6-2.4,4-2.4h0.9V11.9z M69.6,13.6h-0.9c-2,0-3.4,0.5-3.4,1.8
		c0,1.3,1.3,1.8,3,1.8c0.5,0,0.9,0,1.3-0.1V13.6z"/>
	<path class="st0" d="M72.9,17.7h-0.6V5.1h0.6V17.7z"/>
	<path class="st0" d="M75.2,13.5v0.1c0,2.3,1.4,3.6,3.4,3.6c1,0,1.8-0.2,2.7-0.9V17c-0.7,0.6-1.7,0.8-2.7,0.8
		c-2.2,0-3.9-1.5-3.9-4.2c0-2.2,1.6-4.1,3.7-4.1c2,0,3.2,1.4,3.2,3.5v0.5H75.2z M80.9,13c0-1.8-1-3-2.6-3c-1.5,0-2.8,1.2-3.1,3H80.9
		z"/>
	<path class="st0" d="M83.3,16.7c0.3,0,0.5,0.2,0.5,0.5c0,0.3-0.2,0.5-0.5,0.5s-0.5-0.2-0.5-0.5C82.8,16.9,83,16.7,83.3,16.7z"/>
	<path class="st0" d="M85.7,7.3c0-0.3,0.2-0.5,0.5-0.5c0.3,0,0.5,0.2,0.5,0.5c0,0.3-0.2,0.5-0.5,0.5C86,7.8,85.7,7.6,85.7,7.3z
		 M86.5,17.7h-0.6v-8h0.6V17.7z"/>
	<path class="st0" d="M92.1,9.5c2.3,0,3.9,1.7,3.9,4.2c0,2.5-1.6,4.2-3.9,4.2c-2.3,0-3.9-1.7-3.9-4.2C88.2,11.2,89.8,9.5,92.1,9.5z
		 M92.1,10c-1.9,0-3.3,1.5-3.3,3.6s1.3,3.6,3.3,3.6c1.9,0,3.3-1.5,3.3-3.6S94,10,92.1,10z"/>
</g>
<path class="st0" d="M13.8,7.6c-1.2,0-2.2,1-2.2,2.2c0,0.7,0.3,1.3,0.8,1.7l-2,2.8c-0.1,0-0.3,0-0.4,0c-0.1,0-0.2,0-0.3,0l-2-2.9
	c0.4-0.4,0.7-1,0.7-1.6c0-1.2-1-2.2-2.2-2.2s-2.2,1-2.2,2.2c0,0.7,0.3,1.3,0.7,1.7l-1.9,2.9c-0.2,0-0.3,0-0.5,0
	c-1.2,0-2.2,1-2.2,2.2s1,2.2,2.2,2.2c1.2,0,2.2-1,2.2-2.2c0-0.6-0.2-1.2-0.7-1.6l1.9-2.9c0.1,0,0.2,0,0.3,0c0.2,0,0.3,0,0.4,0
	l1.9,2.8c-0.5,0.4-0.8,1-0.8,1.7c0,1.2,1,2.2,2.2,2.2s2.2-1,2.2-2.2c0-0.6-0.3-1.2-0.7-1.6l2-2.9c0.1,0,0.2,0,0.3,0
	c1.2,0,2.2-1,2.2-2.2C16,8.6,15,7.6,13.8,7.6z M3.2,16.8c0,0.1,0,0.1-0.1,0.2c-0.1,0.3-0.4,0.5-0.8,0.6c0,0-0.1,0-0.1,0h0
	c-0.2,0-0.3,0-0.5-0.1c-0.3-0.2-0.5-0.5-0.5-0.8c0,0,0-0.1,0-0.1c0-0.1,0.1-0.3,0.1-0.4c0-0.1,0.1-0.1,0.1-0.2c0,0,0.1-0.1,0.1-0.1
	c0,0,0.1-0.1,0.2-0.1c0.1-0.1,0.3-0.1,0.5-0.1h0c0,0,0.1,0,0.1,0c0,0,0.1,0,0.1,0c0.1,0,0.1,0,0.2,0.1c0.1,0,0.2,0.1,0.2,0.1
	c0,0,0.1,0.1,0.1,0.1c0,0,0.1,0.1,0.1,0.2c0.1,0.1,0.1,0.2,0.1,0.4c0,0,0,0.1,0,0.1C3.2,16.6,3.2,16.7,3.2,16.8z M5.9,8.9
	c0.1,0,0.1,0,0.2,0c0.1,0,0.1,0,0.2,0c0.1,0,0.1,0,0.2,0.1c0.1,0,0.2,0.1,0.3,0.2c0,0,0,0,0.1,0.1C6.9,9.3,6.9,9.4,7,9.5
	c0,0,0,0,0,0.1c0,0.1,0,0.2,0,0.3c0,0.5-0.3,0.9-0.8,0.9c-0.1,0-0.1,0-0.2,0c-0.1,0-0.1,0-0.2,0c-0.1,0-0.1,0-0.2-0.1c0,0,0,0,0,0
	l0,0c-0.3-0.2-0.5-0.5-0.5-0.8C5.1,9.4,5.5,9,5.9,8.9z M10.9,16.8c0,0.1,0,0.1-0.1,0.2c-0.1,0.1-0.2,0.3-0.3,0.4
	c0,0-0.1,0.1-0.2,0.1c-0.1,0-0.2,0.1-0.3,0.1c-0.1,0-0.1,0-0.2,0c0,0-0.1,0-0.1,0c-0.1,0-0.3-0.1-0.4-0.1c-0.2-0.1-0.3-0.3-0.4-0.5
	c0-0.1,0-0.1-0.1-0.2c0-0.1,0-0.1,0-0.2c0,0,0-0.1,0-0.1c0-0.1,0.1-0.3,0.1-0.4c0-0.1,0.1-0.1,0.1-0.2c0,0,0.1-0.1,0.1-0.1
	c0,0,0.1-0.1,0.2-0.1c0.1-0.1,0.2-0.1,0.4-0.1c0,0,0.1,0,0.1,0c0.1,0,0.1,0,0.2,0c0.1,0,0.1,0,0.2,0.1c0,0,0.1,0,0.1,0
	c0.1,0,0.1,0.1,0.2,0.1c0,0,0.1,0.1,0.1,0.1c0,0,0.1,0.1,0.1,0.2c0,0,0,0.1,0.1,0.1c0,0,0,0.1,0,0.1c0,0,0,0.1,0,0.1
	c0,0,0,0.1,0,0.1C10.9,16.6,10.9,16.7,10.9,16.8z M14.7,10c0,0.1-0.1,0.2-0.1,0.3c0,0.1-0.1,0.1-0.1,0.2c-0.1,0.1-0.2,0.2-0.4,0.3
	c-0.1,0-0.1,0-0.2,0.1c-0.1,0-0.1,0-0.2,0s-0.1,0-0.2,0c-0.1,0-0.1,0-0.2-0.1c0,0-0.1,0-0.1,0c-0.1,0-0.1-0.1-0.2-0.1
	c0,0-0.1-0.1-0.1-0.1c0,0-0.1-0.1-0.1-0.2c0,0,0-0.1,0-0.1c0-0.1,0-0.1-0.1-0.2c0-0.1,0-0.1,0-0.2c0,0,0-0.1,0-0.1
	c0-0.1,0.1-0.3,0.1-0.4c0-0.1,0.1-0.1,0.1-0.2c0.1-0.1,0.2-0.2,0.3-0.2c0,0,0.1,0,0.1,0c0.1,0,0.2-0.1,0.4-0.1c0.1,0,0.1,0,0.2,0
	c0.1,0,0.1,0,0.2,0.1c0.1,0,0.2,0.1,0.2,0.1c0,0,0.1,0.1,0.1,0.1c0,0,0.1,0.1,0.1,0.2c0.1,0.1,0.1,0.2,0.1,0.4c0,0,0,0.1,0,0.1
	C14.7,9.9,14.7,10,14.7,10z"/>
</svg>
